<?xml version="1.0" encoding="utf-8"?>
<!-- Generator: Adobe Illustrator 24.2.0, SVG Export Plug-In . SVG Version: 6.00 Build 0)  -->
<svg version="1.1" id="Layer_1" xmlns="http://www.w3.org/2000/svg" xmlns:xlink="http://www.w3.org/1999/xlink" x="0px" y="0px"
	 viewBox="0 0 87.5 87.5" style="enable-background:new 0 0 87.5 87.5;" xml:space="preserve">
<style type="text/css">
	.st0{fill:#FFFFFF;}
	.st1{fill:#7D8191;}
	.st2{fill:none;}
	.st3{fill:#39AFE7;}
	.st4{fill:#FFEF79;}
	.st5{fill:#D6001A;}
	.st6{fill:#5FAF6D;}
</style>
<g>
	<circle class="st0" cx="43.8" cy="43.7" r="43.3"/>
	<path d="M43.8,87.5C19.6,87.5,0,67.9,0,43.8S19.6,0,43.8,0s43.7,19.6,43.7,43.8S67.9,87.5,43.8,87.5z M43.8,0.9
		C20.1,0.9,0.9,20.1,0.9,43.8s19.2,42.8,42.8,42.8s42.8-19.2,42.8-42.8S67.4,0.9,43.8,0.9z"/>
	<g>
		<path d="M37.5,40.2v36.3c-1.2-0.2-2.4-0.5-3.5-0.9v-32L37.5,40.2z"/>
		<polygon points="42.8,35 39.3,38.5 39.3,77.1 42.8,77.1 		"/>
		<path d="M53.5,43.6v32c-1.1,0.4-2.3,0.6-3.5,0.9V40.2L53.5,43.6z"/>
		<polygon points="44.7,35 48.1,38.5 48.1,77.1 44.7,77.1 		"/>
	</g>
	<path class="st1" d="M56.8,42.9c0-0.2,0-0.4-0.1-0.7c0,0,0,0,0,0c0-0.2,0-0.3-0.1-0.4c0-0.1,0-0.1,0-0.2c0-0.1,0-0.3-0.1-0.4
		c0-0.3-0.1-0.5-0.2-0.8c-0.1-0.5-0.3-1-0.5-1.5c-0.1-0.2-0.2-0.5-0.3-0.7c-0.1-0.2-0.2-0.5-0.3-0.7l-0.2-0.3l0,0
		c-0.2-0.3-0.4-0.6-0.6-0.9c-0.1-0.1-0.2-0.3-0.3-0.4c-0.1-0.1-0.2-0.3-0.3-0.4c0,0-0.1-0.1-0.1-0.1c-0.1-0.1-0.2-0.2-0.3-0.4
		c-0.1-0.1-0.2-0.3-0.4-0.4c0,0,0,0,0,0c-0.1-0.1-0.2-0.3-0.4-0.4c-0.3-0.2-0.5-0.5-0.8-0.7c-0.1-0.1-0.3-0.2-0.4-0.3
		c-0.1-0.1-0.3-0.2-0.4-0.3c-0.1-0.1-0.3-0.2-0.4-0.3c-0.2-0.1-0.3-0.2-0.5-0.3c-0.4-0.3-0.9-0.5-1.4-0.7c-0.1-0.1-0.2-0.1-0.3-0.2
		c-0.1-0.1-0.3-0.1-0.4-0.2c-0.1,0-0.2-0.1-0.3-0.1c-0.1-0.1-0.3-0.1-0.4-0.1c-0.2-0.1-0.4-0.1-0.6-0.2c-0.2,0-0.3-0.1-0.5-0.1
		c-0.1,0-0.3-0.1-0.4-0.1c-0.3-0.1-0.7-0.1-1-0.1l-0.2,0c-0.1,0-0.1,0-0.2,0c-0.1,0-0.3,0-0.4,0c-0.2,0-0.4,0-0.6,0
		c-0.2,0-0.5,0-0.7,0c-0.2,0-0.4,0-0.6,0c-0.4,0-0.8,0.1-1.2,0.2c-0.1,0-0.3,0.1-0.4,0.1c-0.5,0.1-1,0.3-1.5,0.4
		c-0.1,0-0.2,0.1-0.3,0.1c-0.3,0.1-0.6,0.2-0.9,0.4c-0.1,0.1-0.3,0.1-0.4,0.2c-0.4,0.2-0.8,0.4-1.2,0.7l-0.2,0.1
		c-0.3,0.2-0.5,0.4-0.7,0.5c0,0,0,0,0,0c-0.2,0.2-0.5,0.4-0.7,0.6c0,0,0,0,0,0c-0.2,0.2-0.4,0.4-0.6,0.6c0,0-0.1,0.1-0.1,0.1
		c0,0-0.1,0.1-0.1,0.1c-0.1,0.1-0.3,0.3-0.4,0.4c-0.1,0.1-0.1,0.1-0.2,0.2l-0.1,0.1c-0.4,0.5-0.7,1-1,1.5c-0.2,0.3-0.3,0.5-0.4,0.8
		c-0.1,0.3-0.3,0.5-0.4,0.8c-0.1,0.2-0.2,0.4-0.2,0.6c-0.1,0.2-0.1,0.4-0.2,0.6l0,0.1c0,0.1-0.1,0.2-0.1,0.3c0,0.1-0.1,0.2-0.1,0.3
		c-0.1,0.3-0.1,0.5-0.2,0.8c0,0.2-0.1,0.4-0.1,0.6c0,0.2-0.1,0.5-0.1,0.7c0,0.2,0,0.4-0.1,0.6c0,0.2,0,0.5,0,0.7v0.1
		c0,0.2,0,0.4,0,0.6c0,0.2,0,0.4,0,0.6c0,0,0,0.1,0,0.1c0,0.2,0,0.3,0.1,0.5c0,0.1,0,0.1,0,0.2c0,0.3,0.1,0.6,0.2,0.9
		c0,0.1,0,0.1,0,0.1c0,0.1,0.1,0.2,0.1,0.3c0,0.2,0.1,0.3,0.1,0.4l0,0c0.1,0.3,0.2,0.5,0.3,0.8c0.1,0.2,0.2,0.4,0.2,0.6
		c0.3,0.6,0.5,1.2,0.9,1.7c0.3,0.4,0.6,0.8,0.9,1.2c0.1,0.1,0.2,0.3,0.3,0.4c0.1,0.1,0.2,0.2,0.2,0.3v-3.2c-1-1.7-1.5-3.6-1.5-5.6
		c0-6.2,5-11.2,11.2-11.2c6.2,0,11.2,5,11.2,11.2c0,1.9-0.5,3.8-1.4,5.4v3.3c0-0.1,0.1-0.1,0.2-0.2c0.3-0.3,0.5-0.6,0.7-1
		c0,0,0-0.1,0.1-0.1c0.2-0.3,0.4-0.6,0.6-0.9c0-0.1,0.1-0.1,0.1-0.2l0.1-0.2c0,0,0,0,0,0c0.1-0.1,0.1-0.3,0.2-0.4
		c0.1-0.1,0.1-0.3,0.2-0.4c0.1-0.1,0.1-0.3,0.2-0.4c0.1-0.3,0.2-0.6,0.3-0.9c0-0.1,0.1-0.2,0.1-0.3c0-0.2,0.1-0.3,0.1-0.5
		c0-0.1,0.1-0.3,0.1-0.4c0-0.1,0-0.1,0-0.2c0-0.1,0-0.1,0-0.2c0-0.2,0.1-0.4,0.1-0.6c0.1-0.6,0.1-1.2,0.1-1.9
		C56.8,43.3,56.8,43.1,56.8,42.9z"/>
	<path d="M60.1,40.7c0-0.1-0.1-0.1-0.1-0.1l-1.1,0.2c-0.1,0-0.1,0-0.1-0.1c-0.1-0.8-0.3-1.5-0.6-2.2c0-0.1,0-0.1,0.1-0.1l1.2-0.6
		c0.1,0,0.1-0.1,0.1-0.2l-1.1-2c0-0.1-0.1-0.1-0.2-0.1l-1,0.5c-0.1,0-0.1,0-0.2-0.1c-0.4-0.7-0.8-1.3-1.3-1.9c0,0,0-0.1,0-0.2l0.9-1
		c0-0.1,0-0.1,0-0.2l-1.7-1.6c-0.1,0-0.1,0-0.2,0L54,32.1c0,0.1-0.1,0.1-0.2,0c-0.6-0.5-1.2-1-1.8-1.4c-0.1,0-0.1-0.1-0.1-0.2
		l0.5-1.2c0-0.1,0-0.1-0.1-0.2l-2.1-0.9c-0.1,0-0.1,0-0.2,0.1l-0.5,1.1c0,0.1-0.1,0.1-0.2,0.1c-0.7-0.3-1.4-0.5-2.2-0.7
		c-0.1,0-0.1-0.1-0.1-0.1l0.1-1.3c0-0.1,0-0.1-0.1-0.1L45,26.9c-0.1,0-0.1,0-0.1,0.1l-0.1,1.1c0,0.1-0.1,0.1-0.1,0.1
		c-0.3,0-0.6,0-0.9,0c-0.5,0-0.9,0-1.4,0.1c-0.1,0-0.1,0-0.1-0.1l-0.3-1.3c0-0.1-0.1-0.1-0.2-0.1l-2.2,0.6c-0.1,0-0.1,0.1-0.1,0.2
		l0.3,1.1c0,0.1,0,0.1-0.1,0.1c-0.7,0.2-1.4,0.5-2.1,0.8c-0.1,0-0.1,0-0.2,0l-0.7-1.1c0-0.1-0.1-0.1-0.2,0l-1.9,1.3
		c-0.1,0-0.1,0.1,0,0.2l0.6,1c0,0.1,0,0.1,0,0.2c-0.6,0.4-1.2,0.9-1.8,1.4c0,0-0.1,0-0.2,0L32,31.6c-0.1,0-0.1,0-0.2,0l-1.4,1.8
		c0,0.1,0,0.1,0,0.2l0.9,0.7c0.1,0,0.1,0.1,0,0.2c-0.4,0.6-0.8,1.3-1.2,1.9c0,0.1-0.1,0.1-0.2,0.1L28.8,36c-0.1,0-0.1,0-0.2,0.1
		l-0.8,2.2c0,0.1,0,0.1,0.1,0.2l1.1,0.4c0.1,0,0.1,0.1,0.1,0.2c-0.2,0.7-0.4,1.5-0.5,2.2c0,0.1-0.1,0.1-0.1,0.1h-1.3
		c-0.1,0-0.1,0.1-0.1,0.1v2.3c0,0.1,0.1,0.1,0.1,0.1h1.2c0.1,0,0.1,0.1,0.1,0.1c0,0.7,0.1,1.3,0.2,2c0,0.1,0,0.1-0.1,0.1l-1.3,0.4
		c-0.1,0-0.1,0.1-0.1,0.2l0.7,2.2c0,0.1,0.1,0.1,0.2,0.1l1.1-0.4c0.1,0,0.1,0,0.2,0.1c0.3,0.7,0.6,1.4,0.9,2.1c0,0.1,0,0.1,0,0.2
		l-1.1,0.8c-0.1,0-0.1,0.1,0,0.2l1.4,1.8c0,0.1,0.1,0.1,0.2,0l0.9-0.7c0.1,0,0.1,0,0.2,0c0.7,0.8,1.4,1.6,2.2,2.3v-3
		c-0.1-0.1-0.2-0.2-0.2-0.3c-0.1-0.1-0.2-0.3-0.3-0.4c-0.3-0.4-0.6-0.8-0.9-1.2c-0.3-0.5-0.6-1.1-0.9-1.7c-0.1-0.2-0.2-0.4-0.2-0.6
		c-0.1-0.3-0.2-0.5-0.3-0.8l0,0c0-0.1-0.1-0.3-0.1-0.4c0-0.1-0.1-0.2-0.1-0.3c0,0,0-0.1,0-0.1c-0.1-0.3-0.1-0.6-0.2-0.9
		c0-0.1,0-0.1,0-0.2c0-0.2,0-0.3-0.1-0.5c0,0,0-0.1,0-0.1c0-0.2,0-0.4,0-0.6c0-0.2,0-0.4,0-0.6v-0.2c0-0.2,0-0.4,0-0.6
		c0-0.2,0-0.4,0.1-0.6c0-0.2,0.1-0.5,0.1-0.7c0-0.2,0.1-0.4,0.1-0.6c0.1-0.3,0.1-0.5,0.2-0.8c0-0.1,0.1-0.2,0.1-0.3
		c0-0.1,0.1-0.2,0.1-0.3l0-0.1c0.1-0.2,0.1-0.4,0.2-0.6c0.1-0.2,0.2-0.4,0.2-0.6c0.1-0.3,0.3-0.6,0.4-0.8c0.1-0.3,0.3-0.5,0.4-0.8
		c0.3-0.5,0.7-1,1-1.5l0.1-0.1c0.1-0.1,0.1-0.1,0.2-0.2c0.1-0.1,0.2-0.3,0.4-0.4c0,0,0.1-0.1,0.1-0.1c0,0,0.1-0.1,0.1-0.1
		c0.2-0.2,0.4-0.4,0.6-0.6c0,0,0,0,0,0c0.2-0.2,0.4-0.4,0.7-0.6c0,0,0,0,0,0c0.2-0.2,0.5-0.4,0.7-0.5l0.2-0.1
		c0.4-0.3,0.8-0.5,1.2-0.7c0.1-0.1,0.3-0.1,0.4-0.2c0.3-0.1,0.6-0.3,0.9-0.4c0.1,0,0.2-0.1,0.3-0.1c0.5-0.2,1-0.3,1.5-0.4
		c0.1,0,0.3-0.1,0.4-0.1c0.4-0.1,0.8-0.1,1.2-0.2c0.2,0,0.4,0,0.6,0c0.2,0,0.5,0,0.7,0c0.2,0,0.4,0,0.6,0c0.1,0,0.3,0,0.4,0
		c0.1,0,0.1,0,0.2,0l0.2,0c0.3,0,0.7,0.1,1,0.1c0.1,0,0.3,0.1,0.4,0.1c0.2,0,0.3,0.1,0.5,0.1c0.2,0.1,0.4,0.1,0.6,0.2
		c0.1,0,0.3,0.1,0.4,0.1c0.1,0,0.2,0.1,0.3,0.1c0.2,0.1,0.3,0.1,0.4,0.2c0.1,0,0.2,0.1,0.3,0.2c0.5,0.2,0.9,0.4,1.4,0.7
		c0.2,0.1,0.3,0.2,0.5,0.3c0.1,0.1,0.3,0.2,0.4,0.3c0.1,0.1,0.3,0.2,0.4,0.3c0.1,0.1,0.3,0.2,0.4,0.3c0.3,0.2,0.5,0.5,0.8,0.7
		c0.1,0.1,0.3,0.2,0.4,0.4c0,0,0,0,0,0c0.1,0.1,0.2,0.3,0.4,0.4c0.1,0.1,0.2,0.2,0.3,0.4c0,0,0.1,0.1,0.1,0.1
		c0.1,0.1,0.2,0.2,0.3,0.4c0.1,0.1,0.2,0.3,0.3,0.4c0.2,0.3,0.4,0.6,0.6,0.9l0,0l0.2,0.3c0.1,0.2,0.2,0.5,0.3,0.7
		c0.1,0.2,0.2,0.5,0.3,0.7c0.2,0.5,0.3,1,0.5,1.5c0.1,0.3,0.1,0.5,0.2,0.8c0,0.1,0.1,0.3,0.1,0.4c0,0.1,0,0.1,0,0.2
		c0,0.1,0,0.3,0.1,0.4c0,0,0,0,0,0c0,0.2,0,0.4,0.1,0.7c0,0.2,0,0.5,0,0.7c0,0.6-0.1,1.3-0.1,1.9c0,0.2-0.1,0.4-0.1,0.6
		c0,0.1,0,0.1,0,0.2c0,0.1,0,0.1,0,0.2c0,0.1-0.1,0.3-0.1,0.4c0,0.2-0.1,0.3-0.1,0.5c0,0.1-0.1,0.2-0.1,0.3
		c-0.1,0.3-0.2,0.6-0.3,0.9c-0.1,0.1-0.1,0.3-0.2,0.4c-0.1,0.1-0.1,0.3-0.2,0.4c-0.1,0.1-0.1,0.3-0.2,0.4c0,0,0,0,0,0l-0.1,0.2
		c0,0.1-0.1,0.1-0.1,0.2c-0.2,0.3-0.4,0.6-0.6,0.9c0,0,0,0.1-0.1,0.1c-0.2,0.3-0.5,0.7-0.7,1c-0.1,0.1-0.1,0.1-0.2,0.2v3
		c0.8-0.7,1.6-1.5,2.2-2.3c0-0.1,0.1-0.1,0.2,0l1.2,0.6c0.1,0,0.1,0,0.2-0.1l1.1-2c0-0.1,0-0.1-0.1-0.2l-1-0.6
		c-0.1,0-0.1-0.1-0.1-0.2c0.4-0.7,0.6-1.4,0.9-2.1c0-0.1,0.1-0.1,0.1-0.1l1.3,0.2c0.1,0,0.1,0,0.2-0.1l0.4-2.3c0-0.1,0-0.1-0.1-0.2
		l-1.1-0.2c-0.1,0-0.1-0.1-0.1-0.1c0.1-0.7,0.2-1.5,0.2-2.2v-0.1l1.4-0.2c0.1,0,0.1-0.1,0.1-0.1L60.1,40.7z"/>
	<g>
		<line class="st2" x1="43.8" y1="43.8" x2="43.8" y2="43.7"/>
	</g>
	<polygon class="st3" points="42.8,35 39.3,38.5 39.3,77.1 42.8,77.1 	"/>
	<path class="st3" d="M53.5,43.6v32c-1.1,0.4-2.3,0.6-3.5,0.9V40.2L53.5,43.6z"/>
	<path d="M48.9,19.4l-5-6l-0.3,2.7c-15.2,0-27.5,12.4-27.5,27.6c0,3,0.5,5.9,1.4,8.7l2-3.7l3.9,2.1c-0.8-2.2-1.2-4.6-1.2-7
		c0-11.7,9.3-21.2,20.9-21.5l-0.2,2.1L48.9,19.4z"/>
	<g>
		<path class="st4" d="M60.1,62.2L60,57.8c-3.9,4.6-9.8,7.4-16.3,7.4c-7.7,0-14.5-4.1-18.3-10.2l1.9-0.9l-7.3-2.7l-2.7,7.3l2.5-1.1
			c4.8,8.2,13.7,13.8,23.9,13.8c8.2,0,15.5-3.6,20.6-9.2L60.1,62.2z"/>
		<path d="M43.8,71.5c-9.8,0-19-5.2-23.9-13.7L17.1,59l2.9-7.8l7.8,2.9l-2.1,1c3.9,6.3,10.7,10,18.1,10c6.2,0,12.1-2.7,16.1-7.4
			l0.3-0.3l0.1,4.7l4.4-0.1l-0.2,0.3C59.2,68.1,51.6,71.5,43.8,71.5z M19.9,57.4l0.1,0.1c4.9,8.4,14,13.7,23.7,13.7
			c7.7,0,15-3.2,20.2-8.9l-4,0.1l-0.1-4.2c-4.1,4.6-10,7.2-16.1,7.2c-7.5,0-14.4-3.8-18.4-10.3L25.2,55l1.8-0.8l-6.8-2.5l-2.5,6.8
			L19.9,57.4z"/>
	</g>
	<path class="st5" d="M71.4,43.7c0-13.3-9.4-24.4-22-27l2.2,3.6l-3.8,2.3c9.9,1.9,17.4,10.6,17.4,21.1c0,3.7-0.9,7.1-2.6,10.2
		l-1.7-1.2l1.3,7.7l7.7-1.3l-2.2-1.6C70,53.4,71.4,48.8,71.4,43.7z"/>
	<polygon class="st3" points="44.7,35 48.1,38.5 48.1,77.1 44.7,77.1 	"/>
	<path class="st3" d="M37.5,40.2v36.3c-1.2-0.2-2.4-0.5-3.5-0.9v-32L37.5,40.2z"/>
	<g>
		<path d="M43.8,77.6c-0.3,0-0.7,0-1,0c-1.2,0-2.4-0.1-3.5-0.3c-0.7-0.1-1.3-0.2-1.8-0.3c-1.2-0.2-2.4-0.5-3.5-0.9
			C19.5,71.7,9.9,58.7,9.9,43.8c0-18.6,15.2-33.8,33.8-33.8c18.6,0,33.8,15.2,33.8,33.8c0,15-9.6,28-23.9,32.3
			c-1.1,0.4-2.3,0.6-3.5,0.9c-0.6,0.1-1.2,0.2-1.9,0.3c-1.2,0.2-2.4,0.2-3.5,0.3C44.4,77.6,44.1,77.6,43.8,77.6z M43.8,10.9
			c-18.1,0-32.9,14.8-32.9,32.9c0,14.6,9.3,27.2,23.2,31.4c1.1,0.3,2.3,0.6,3.4,0.9c0.5,0.1,1.1,0.2,1.8,0.3
			c1.1,0.2,2.3,0.2,3.4,0.3c0.6,0,1.2,0,1.9,0c1.1,0,2.3-0.1,3.4-0.3c0.7-0.1,1.3-0.2,1.9-0.3c1.2-0.2,2.3-0.5,3.5-0.9
			c13.9-4.3,23.2-16.9,23.2-31.4C76.6,25.6,61.9,10.9,43.8,10.9z"/>
	</g>
	<g>
		<path d="M3.7,54.5l-0.3-1.3L7,50.1l-4,0.8l-0.2-1.1l5.7-1.2l0.2,1.2L5.1,53l4.1-0.8l0.2,1.1L3.7,54.5z"/>
		<path d="M2.4,46l-0.1-1.4l5.8-2.3l0.1,1.3L7,44.1l0.1,2.2l1.2,0.4l0,1.3L2.4,46z M6.1,45.9L6,44.4l-2.3,0.8L6.1,45.9z"/>
		<path d="M2.8,37.3l1,0.1l-0.2,1.7l4.8,0.5l-0.1,1.2l-4.8-0.5l-0.2,1.8l-1-0.1L2.8,37.3z"/>
		<path d="M9.1,36l-0.2,1.2L3.1,36l0.2-1.2L9.1,36z"/>
		<path d="M10.2,30.3c0.3,0.6,0.3,1.2,0,2C10,33.1,9.6,33.6,9,33.9c-0.7,0.4-1.6,0.4-2.6,0.1c-1-0.3-1.7-0.9-2-1.6
			c-0.3-0.6-0.3-1.2,0-2c0.3-0.8,0.7-1.3,1.3-1.6c0.7-0.4,1.6-0.4,2.6-0.1C9.2,29,9.9,29.5,10.2,30.3z M9.1,30.7
			c-0.2-0.4-0.7-0.7-1.3-0.9c-0.6-0.2-1.1-0.2-1.6-0.1s-0.7,0.5-0.9,0.9c-0.2,0.5-0.1,0.9,0.1,1.3c0.2,0.4,0.7,0.7,1.3,0.9
			C7.4,33,8,33.1,8.4,32.9c0.4-0.2,0.7-0.5,0.9-0.9C9.4,31.5,9.4,31.1,9.1,30.7z"/>
		<path d="M6.3,26l0.6-1.1l4.7-0.1l-3.6-2l0.5-1l5.1,2.8l-0.6,1.1l-4.8,0.1l3.6,2l-0.5,1L6.3,26z"/>
		<path d="M10.8,18.7l0.9-1.1l5.9,2l-0.8,1l-1.2-0.4l-1.3,1.7l0.7,1.1l-0.8,1L10.8,18.7z M13.6,21l0.9-1.2L12.3,19L13.6,21z"/>
		<path d="M14.2,14.7l0.9-0.8l3.3,3.5l2.1-2l0.7,0.8l-3,2.8L14.2,14.7z"/>
		<path d="M24.1,7.5c0.2,0,0.5,0,0.7,0.1c0.2,0.1,0.4,0.2,0.5,0.3c0.2,0.1,0.3,0.3,0.4,0.5c0.1,0.2,0.2,0.5,0.2,0.8
			c0,0.3-0.1,0.6-0.3,0.8c0.3,0,0.5,0,0.7,0.1c0.2,0.1,0.4,0.3,0.6,0.7l0.2,0.3c0.1,0.2,0.2,0.4,0.3,0.5c0.1,0.1,0.2,0.2,0.4,0.2
			l0.1,0.1l-1.2,0.7c-0.1-0.1-0.2-0.2-0.2-0.2c-0.1-0.1-0.2-0.3-0.3-0.4l-0.3-0.5c-0.2-0.3-0.4-0.5-0.5-0.5c-0.2,0-0.4,0-0.7,0.2
			l-1,0.6l1.2,2l-1,0.6l-3-5l2.4-1.4C23.5,7.6,23.8,7.5,24.1,7.5z M22.3,9.5l0.8,1.4l1.1-0.7c0.2-0.1,0.4-0.3,0.5-0.4
			c0.1-0.2,0.1-0.5,0-0.7c-0.2-0.3-0.4-0.5-0.7-0.4c-0.1,0-0.3,0.1-0.5,0.2L22.3,9.5z"/>
		<path d="M31.2,5.3l-2.9,1.1l0.5,1.2l2.6-1l0.4,0.9l-2.6,1l0.5,1.4l3-1.2l0.4,1l-4.1,1.6l-2.1-5.5l4-1.6L31.2,5.3z"/>
		<path d="M36.1,3l1.2-0.3l-0.7,6.1l-1.1,0.2l-3.2-5.3l1.3-0.3l2.2,4.1L36.1,3z"/>
		<path d="M43.4,3.3l-3.1,0.2l0.1,1.2l2.8-0.2l0.1,1l-2.8,0.2l0.1,1.5l3.2-0.2l0.1,1.1l-4.4,0.3l-0.4-5.8l4.3-0.3L43.4,3.3z"/>
		<path d="M45.4,2.3l1.3,0.1l1.9,4.3L49,2.7l1.1,0.1l-0.6,5.8l-1.2-0.1l-2-4.4L46,8.3l-1.1-0.1L45.4,2.3z"/>
		<path d="M52.3,3.2l1.2,0.3L52.6,7c-0.1,0.4-0.1,0.7-0.1,0.9c0.1,0.4,0.3,0.6,0.8,0.7c0.5,0.1,0.8,0.1,1.1-0.2
			c0.1-0.2,0.3-0.4,0.4-0.8l0.9-3.5l1.2,0.3l-0.9,3.5c-0.2,0.6-0.4,1-0.7,1.3C54.7,9.7,54,9.8,53,9.6c-1-0.3-1.6-0.7-1.7-1.5
			c-0.1-0.4-0.1-0.9,0.1-1.5L52.3,3.2z"/>
		<path d="M62.4,7.9l-2.8-1.3L59,7.7l2.6,1.2l-0.4,0.9l-2.6-1.2L58,10l3,1.3l-0.4,1l-4-1.8l2.4-5.3l3.9,1.8L62.4,7.9z"/>
		<path d="M68.1,10.3l1.1,0.8L67.3,17l-1.1-0.8l0.4-1.2L65,13.7l-1,0.7l-1-0.8L68.1,10.3z M65.9,13.1l1.2,0.9l0.8-2.3L65.9,13.1z"/>
		<path d="M72.2,13.5l0.9,0.9l-2.6,2.5c-0.3,0.3-0.5,0.5-0.5,0.7c-0.1,0.3,0,0.7,0.3,1c0.3,0.4,0.7,0.5,1,0.4
			c0.2-0.1,0.4-0.2,0.7-0.5l2.6-2.5l0.9,0.9l-2.6,2.5c-0.5,0.4-0.9,0.7-1.3,0.8c-0.7,0.2-1.4-0.1-2.1-0.8c-0.7-0.7-0.9-1.5-0.7-2.2
			c0.1-0.4,0.4-0.8,0.9-1.2L72.2,13.5z"/>
		<path d="M79.1,22.1l-0.9,0.6l-1-1.4l-4,2.7l-0.7-1l4-2.7l-1-1.4l0.9-0.6L79.1,22.1z"/>
		<path d="M74.7,26.1l5.3-2.6l0.5,1.1l-2,1l1,2l2-1l0.5,1.1l-5.3,2.6l-0.5-1.1l2.3-1.1l-1-2l-2.3,1.1L74.7,26.1z"/>
		<path d="M79,35.7c-0.6-0.3-1-0.9-1.2-1.7c-0.2-0.8-0.2-1.5,0.1-2c0.4-0.7,1.1-1.2,2.1-1.5c1-0.3,1.9-0.2,2.6,0.2
			c0.6,0.3,1,0.9,1.2,1.7c0.2,0.8,0.2,1.5-0.1,2c-0.4,0.7-1,1.2-2.1,1.5C80.5,36.2,79.7,36.1,79,35.7z M79.6,34.7
			c0.4,0.2,0.9,0.2,1.6,0c0.6-0.2,1.1-0.5,1.3-0.8c0.3-0.4,0.3-0.8,0.2-1.3c-0.1-0.5-0.4-0.8-0.8-1c-0.4-0.2-1-0.2-1.6,0
			c-0.6,0.2-1.1,0.5-1.3,0.8c-0.3,0.4-0.3,0.8-0.2,1.3C78.9,34.2,79.2,34.5,79.6,34.7z"/>
		<path d="M84.9,40.8c-0.1,0.2-0.2,0.4-0.3,0.6c-0.1,0.1-0.3,0.3-0.5,0.3c-0.2,0.1-0.4,0.1-0.6,0.2c-0.3,0-0.6,0-0.8-0.1
			c-0.3-0.1-0.5-0.3-0.6-0.6c-0.1,0.3-0.2,0.5-0.4,0.6c-0.2,0.1-0.5,0.2-0.9,0.3l-0.4,0c-0.3,0-0.4,0.1-0.5,0.1
			c-0.1,0-0.2,0.1-0.3,0.3l-0.1,0l-0.1-1.3c0.1-0.1,0.2-0.1,0.3-0.1c0.2,0,0.3-0.1,0.5-0.1l0.5-0.1c0.4,0,0.6-0.1,0.7-0.3
			c0.1-0.1,0.1-0.4,0.1-0.7l-0.1-1.2L79,38.9l-0.1-1.2l5.8-0.6l0.3,2.8C85,40.2,85,40.5,84.9,40.8z M83.8,38.3l-1.6,0.2l0.1,1.3
			c0,0.3,0.1,0.5,0.2,0.6c0.1,0.2,0.4,0.3,0.7,0.3c0.4,0,0.6-0.2,0.7-0.4c0.1-0.1,0.1-0.3,0-0.6L83.8,38.3z"/>
		<path d="M79.3,44.7l0-1.2l5.9,0.1l0,1.2L79.3,44.7z"/>
		<path d="M84.6,50.9l-1-0.1l0.2-1.7L79,48.5l0.1-1.2l4.8,0.5l0.2-1.7l1,0.1L84.6,50.9z"/>
		<path d="M83.4,55.7L83,57.1l-3-2.8l-2.1-0.6l0.3-1.2l2.1,0.6l4.1-1L84,53.4L81.2,54L83.4,55.7z"/>
	</g>
	<g>
		<path class="st6" d="M73.9,64.7c-0.2,0.6-0.2,0.9-0.1,1.5l0,0.2l0.2-0.1c0.1-0.1,0.7-0.6,0.9-1.3c0.1-0.3,0.1-0.7,0-1.3l-0.1-0.2
			l-0.2,0.1C74.4,63.9,74,64.2,73.9,64.7z"/>
		<path class="st6" d="M73.2,66.1c0-0.1-0.1-0.2-0.1-0.4L73,65.6l-0.1,0.1c-0.3,0.3-0.5,0.7-0.6,1.2c0,0.5,0,0.9,0.1,1.3
			c0,0.1,0.1,0.2,0.1,0.4l0,0.1l0.1,0c0,0,1-0.2,1.6-0.6c0,0,0.1,0,0.1-0.1c0.3-0.2,0.5-0.4,0.8-0.9l0.1-0.2l-0.2,0
			c-0.7,0-1.3,0.3-1.8,0.7C73.3,67.1,73.4,66.6,73.2,66.1z"/>
		<path class="st6" d="M71.4,68.9c0,0,0-0.1,0-0.1c0-0.3,0-0.5-0.1-0.8c0-0.1-0.1-0.2-0.1-0.4l-0.1-0.2l-0.1,0.1
			c-0.3,0.3-0.6,0.7-0.6,1.2c-0.1,0.5,0,0.9,0.1,1.4c0,0.1,0.1,0.2,0.1,0.3l0,0.1l0.1,0c1,0.4,1.6,0.5,2.6,0.5
			c0.8,0,1.4-0.4,1.9-0.8l0.1-0.1l-0.2-0.1c-0.8-0.4-1.3-0.4-1.9-0.4c-0.1,0-0.1,0-0.2,0c-0.8,0-1.6,0.3-2.1,0.6
			C71.2,69.8,71.4,69.3,71.4,68.9z"/>
		<path class="st6" d="M69,72.1c0.2-0.3,0.4-0.7,0.5-1.2c0,0,0-0.1,0-0.1c0-0.3,0.1-0.6,0-1.1c0-0.1,0-0.1-0.1-0.2l-0.1-0.2
			l-0.1,0.1c-0.3,0.3-0.6,0.7-0.7,1.2c-0.1,0.6-0.1,1.1,0,1.8l0,0.1l0,0c1,0.5,1.6,0.7,2.7,0.7c0.8,0,1.5-0.3,2.1-0.7l0.1-0.1
			l-0.1-0.1c-0.8-0.5-1.3-0.5-1.9-0.6c-0.1,0-0.1,0-0.2,0C70.5,71.6,69.6,71.9,69,72.1z"/>
		<path class="st6" d="M66.7,74.1c0.2-0.3,0.5-0.7,0.6-1.2c0,0,0-0.1,0-0.1c0.1-0.4,0.2-0.8,0-1.3l0-0.2l-0.1,0.1
			c-0.4,0.3-0.7,0.6-0.9,1.2c-0.2,0.7-0.2,1.1-0.1,1.8l0,0.1l0,0c1,0.6,1.7,0.9,2.8,1c0.8,0.1,1.6-0.2,2.2-0.5l0.2-0.1l-0.1-0.1
			c-0.8-0.6-1.4-0.7-1.9-0.8c-0.1,0-0.1,0-0.2,0C68.3,73.7,67.3,73.9,66.7,74.1z"/>
		<path class="st6" d="M66.7,75.8c-0.9-0.3-2-0.1-2.6,0c0.3-0.3,0.6-0.7,0.8-1.2c0,0,0-0.1,0-0.1c0.1-0.4,0.2-0.8,0.2-1.4l0-0.2
			L65,73c-0.4,0.3-0.8,0.6-1,1.1c-0.3,0.7-0.3,1.1-0.3,1.9l0,0.1l0,0c1,0.7,1.7,1,2.8,1.3c0.9,0.2,1.7-0.1,2.4-0.4L69,77l-0.1-0.1
			c-0.7-0.7-1.4-0.8-2-1C66.9,75.9,66.8,75.9,66.7,75.8z"/>
		<path class="st6" d="M64.1,77.7c-0.9-0.4-2.1-0.3-2.7-0.2c0.3-0.3,0.7-0.7,1-1.2c0,0,0-0.1,0-0.1c0.2-0.4,0.3-0.8,0.3-1.4l0-0.2
			l-0.2,0.1c-0.5,0.2-0.9,0.6-1.2,1.1c-0.3,0.7-0.5,1.2-0.5,2l0,0.1l0,0c1,0.9,1.6,1.2,2.8,1.6c0.9,0.3,1.7,0.1,2.5-0.2l0.2-0.1
			L66.2,79c-0.7-0.8-1.3-1-2-1.3C64.2,77.7,64.1,77.7,64.1,77.7z"/>
		<path class="st6" d="M61.3,79.4c-0.1,0-0.1-0.1-0.2-0.1c-0.9-0.5-2.2-0.5-2.9-0.5c0.4-0.3,0.9-0.7,1.1-1.2c0,0,0-0.1,0.1-0.1
			c0.2-0.4,0.4-0.8,0.4-1.5l0-0.2l-0.2,0.1c-0.5,0.2-1,0.5-1.3,1c-0.4,0.7-0.6,1.2-0.7,2l0,0.1l0,0c0.9,1,1.6,1.5,2.8,2
			c0.9,0.4,1.8,0.3,2.7,0.1l0.2,0l-0.1-0.1C62.6,80.1,62,79.7,61.3,79.4z"/>
		<path class="st6" d="M57.9,80.7c-0.9-0.6-2.2-0.8-2.9-0.9c0.4-0.2,1-0.6,1.4-1.1c0,0,0.1-0.1,0.1-0.1c0.3-0.4,0.5-0.8,0.6-1.5
			l0-0.2l-0.2,0c-0.5,0.2-1.1,0.4-1.5,0.9c-0.5,0.7-0.8,1.2-1,2l0,0.1l0,0c0.8,1.1,1.5,1.7,2.7,2.4c0.9,0.5,1.9,0.5,2.8,0.4l0.2,0
			l-0.1-0.2c-0.6-1-1.2-1.4-1.8-1.8C58,80.8,57.9,80.7,57.9,80.7z"/>
		<path class="st6" d="M56.1,84c-0.5-1.1-1-1.7-1.6-2.2c-0.1-0.1-0.1-0.1-0.2-0.2c-0.9-0.8-2.2-1.2-2.9-1.4c0.5-0.2,1.2-0.5,1.6-1
			c0,0,0.1-0.1,0.1-0.1c0.3-0.4,0.7-0.7,0.9-1.4l0.1-0.2l-0.2,0c-0.6,0.1-1.2,0.2-1.7,0.7c-0.7,0.6-1,1.1-1.4,1.9l0,0l0,0
			c0.7,1.3,1.3,2,2.4,2.9c0.8,0.7,1.9,0.8,2.8,0.9l0.2,0L56.1,84z"/>
		<path class="st6" d="M50.8,82.3c-0.1-0.1-0.1-0.1-0.2-0.2c-0.8-0.9-2.2-1.5-3-1.7c0.5-0.1,1.3-0.4,1.8-0.9c0,0,0.1-0.1,0.1-0.1
			c0.4-0.3,0.8-0.7,1.1-1.4l0.1-0.2l-0.2,0c-0.6,0-1.3,0.1-1.9,0.6c-0.7,0.6-1.1,1-1.6,1.9l0,0l0,0c0.6,1.5,1.1,2.3,2.2,3.3
			c0.8,0.8,1.9,1,2.9,1.2l0.2,0l-0.1-0.2C51.9,83.5,51.3,82.9,50.8,82.3z"/>
		<g>
			<path class="st6" d="M46.5,79.8c0,0,0-0.1,0.1-0.1c0.2-0.3,0.4-0.7,0.5-1.4l0-0.1l-0.1,0c-0.5,0.2-1,0.4-1.3,0.9
				c-0.4,0.6-0.6,1.1-0.8,1.9l0,0l0,0C44.9,81.1,46,80.6,46.5,79.8z"/>
			<path class="st6" d="M41,79.8c0,0,0-0.1-0.1-0.1c-0.2-0.3-0.4-0.7-0.5-1.4l0-0.1l0.1,0c0.5,0.2,1,0.4,1.3,0.9
				c0.4,0.6,0.6,1.1,0.8,1.9l0,0l0,0C42.6,81.1,41.5,80.6,41,79.8z"/>
			<path class="st6" d="M43.3,79.5c0,0,0-0.1,0-0.1c0-0.4,0.1-0.8,0.4-1.4l0.1-0.1l0.1,0.1c0.3,0.4,0.6,0.9,0.5,1.5
				c0,0.8-0.1,1.2-0.5,2l0,0l0,0C43.9,81.5,43.3,80.4,43.3,79.5z"/>
		</g>
		<path class="st6" d="M13.8,64.7c0.2,0.6,0.2,0.9,0.1,1.5l0,0.2l-0.2-0.1c-0.1-0.1-0.7-0.6-0.9-1.3c-0.1-0.3-0.1-0.7,0-1.3l0.1-0.2
			l0.2,0.1C13.3,63.9,13.7,64.2,13.8,64.7z"/>
		<path class="st6" d="M14.4,66.1c0-0.1,0.1-0.2,0.1-0.4l0.1-0.2l0.1,0.1c0.3,0.3,0.5,0.7,0.6,1.2c0,0.5,0,0.9-0.1,1.3
			c0,0.1-0.1,0.2-0.1,0.4l0,0.1l-0.1,0c0,0-1-0.2-1.6-0.6c0,0-0.1,0-0.1-0.1c-0.3-0.2-0.5-0.4-0.8-0.9l-0.1-0.2l0.2,0
			c0.7,0,1.3,0.3,1.8,0.7C14.4,67.1,14.3,66.6,14.4,66.1z"/>
		<path class="st6" d="M16.2,68.9c0,0,0-0.1,0-0.1c0-0.3,0-0.5,0.1-0.8c0-0.1,0.1-0.2,0.1-0.4l0.1-0.2l0.1,0.1
			c0.3,0.3,0.6,0.7,0.6,1.2c0.1,0.5,0,0.9-0.1,1.4c0,0.1-0.1,0.2-0.1,0.3l0,0.1l-0.1,0c-1,0.4-1.6,0.5-2.6,0.5
			c-0.8,0-1.4-0.4-1.9-0.8L12.3,70l0.2-0.1c0.8-0.4,1.3-0.4,1.9-0.4c0.1,0,0.1,0,0.2,0c0.8,0,1.6,0.3,2.1,0.6
			C16.4,69.8,16.2,69.3,16.2,68.9z"/>
		<path class="st6" d="M18.6,72.1c-0.2-0.3-0.4-0.7-0.5-1.2c0,0,0-0.1,0-0.1c0-0.3-0.1-0.6,0-1.1c0-0.1,0-0.1,0.1-0.2l0.1-0.2
			l0.1,0.1c0.3,0.3,0.6,0.7,0.7,1.2c0.1,0.6,0.1,1.1,0,1.8l0,0.1l0,0c-1,0.5-1.6,0.7-2.7,0.7c-0.8,0-1.5-0.3-2.1-0.7l-0.1-0.1
			l0.1-0.1c0.8-0.5,1.3-0.5,1.9-0.6c0.1,0,0.1,0,0.2,0C17.2,71.6,18.1,71.9,18.6,72.1z"/>
		<path class="st6" d="M21,74.1c-0.2-0.3-0.5-0.7-0.6-1.2c0,0,0-0.1,0-0.1c-0.1-0.4-0.2-0.8,0-1.3l0-0.2l0.1,0.1
			c0.4,0.3,0.7,0.6,0.9,1.2c0.2,0.7,0.2,1.1,0.1,1.8l0,0.1l0,0c-1,0.6-1.7,0.9-2.8,1c-0.8,0.1-1.6-0.2-2.2-0.5l-0.2-0.1l0.1-0.1
			c0.8-0.6,1.4-0.7,1.9-0.8c0.1,0,0.1,0,0.2,0C19.4,73.7,20.4,73.9,21,74.1z"/>
		<path class="st6" d="M20.9,75.8c0.9-0.3,2-0.1,2.6,0c-0.3-0.3-0.6-0.7-0.8-1.2c0,0,0-0.1,0-0.1c-0.1-0.4-0.2-0.8-0.2-1.4l0-0.2
			l0.1,0.1c0.4,0.3,0.8,0.6,1,1.1c0.3,0.7,0.3,1.1,0.3,1.9l0,0.1l0,0c-1,0.7-1.7,1-2.8,1.3c-0.9,0.2-1.7-0.1-2.4-0.4L18.6,77
			l0.1-0.1c0.7-0.7,1.4-0.8,2-1C20.8,75.9,20.9,75.9,20.9,75.8z"/>
		<path class="st6" d="M23.6,77.7c0.9-0.4,2.1-0.3,2.7-0.2c-0.3-0.3-0.7-0.7-1-1.2c0,0,0-0.1,0-0.1c-0.2-0.4-0.3-0.8-0.3-1.4l0-0.2
			l0.2,0.1c0.5,0.2,0.9,0.6,1.2,1.1c0.3,0.7,0.5,1.2,0.5,2l0,0.1l0,0c-1,0.9-1.6,1.2-2.8,1.6c-0.9,0.3-1.7,0.1-2.5-0.2l-0.2-0.1
			l0.1-0.1c0.7-0.8,1.3-1,2-1.3C23.5,77.7,23.5,77.7,23.6,77.7z"/>
		<path class="st6" d="M26.3,79.4c0.1,0,0.1-0.1,0.2-0.1c0.9-0.5,2.2-0.5,2.9-0.5c-0.4-0.3-0.9-0.7-1.1-1.2c0,0,0-0.1-0.1-0.1
			c-0.2-0.4-0.4-0.8-0.4-1.5l0-0.2l0.2,0.1c0.5,0.2,1,0.5,1.3,1c0.4,0.7,0.6,1.2,0.7,2l0,0.1l0,0c-0.9,1-1.6,1.5-2.8,2
			c-0.9,0.4-1.8,0.3-2.7,0.1l-0.2,0l0.1-0.1C25.1,80.1,25.7,79.7,26.3,79.4z"/>
		<path class="st6" d="M29.8,80.7c0.9-0.6,2.2-0.8,2.9-0.9c-0.4-0.2-1-0.6-1.4-1.1c0,0-0.1-0.1-0.1-0.1c-0.3-0.4-0.5-0.8-0.6-1.5
			l0-0.2l0.2,0c0.5,0.2,1.1,0.4,1.5,0.9c0.5,0.7,0.8,1.2,1,2l0,0.1l0,0c-0.8,1.1-1.5,1.7-2.7,2.4c-0.9,0.5-1.9,0.5-2.8,0.4l-0.2,0
			l0.1-0.2c0.6-1,1.2-1.4,1.8-1.8C29.7,80.8,29.8,80.7,29.8,80.7z"/>
		<path class="st6" d="M31.6,84c0.5-1.1,1-1.7,1.6-2.2c0.1-0.1,0.1-0.1,0.2-0.2c0.9-0.8,2.2-1.2,2.9-1.4c-0.5-0.2-1.2-0.5-1.6-1
			c0,0-0.1-0.1-0.1-0.1c-0.3-0.4-0.7-0.7-0.9-1.4l-0.1-0.2l0.2,0c0.6,0.1,1.2,0.2,1.7,0.7c0.7,0.6,1,1.1,1.4,1.9l0,0l0,0
			c-0.7,1.3-1.3,2-2.4,2.9c-0.8,0.7-1.9,0.8-2.8,0.9l-0.2,0L31.6,84z"/>
		<path class="st6" d="M36.9,82.3c0.1-0.1,0.1-0.1,0.2-0.2c0.8-0.9,2.2-1.5,3-1.7c-0.5-0.1-1.3-0.4-1.8-0.9c0,0-0.1-0.1-0.1-0.1
			c-0.4-0.3-0.8-0.7-1.1-1.4L37,77.8l0.2,0c0.6,0,1.3,0.1,1.9,0.6c0.7,0.6,1.1,1,1.6,1.9l0,0l0,0c-0.6,1.5-1.1,2.3-2.2,3.3
			c-0.8,0.8-1.9,1-2.9,1.2l-0.2,0l0.1-0.2C35.8,83.5,36.4,82.9,36.9,82.3z"/>
	</g>
</g>
</svg>
